<svg width="31" height="31" viewBox="0 0 31 31" fill="none" xmlns="http://www.w3.org/2000/svg">
<circle cx="15.5" cy="15.5" r="14.5" fill="white" stroke="black" stroke-width="2"/>
<mask id="path-2-inside-1_357_2114" fill="white">
<path d="M18.8865 7.37233C19.3031 6.34933 18.8152 5.1522 17.7318 4.93685C16.7023 4.7322 15.6443 4.68233 14.5928 4.79225C12.8755 4.9718 11.2289 5.57211 9.79892 6.54002C8.36897 7.50793 7.19979 8.81355 6.39495 10.3412C5.59011 11.8689 5.17446 13.5716 5.1848 15.2983C5.19515 17.025 5.63118 18.7225 6.45427 20.2404C7.27735 21.7583 8.46209 23.0499 9.90354 24.0006C11.345 24.9513 12.9987 25.5318 14.7181 25.6908C15.7707 25.7881 16.8281 25.7255 17.8551 25.5086C18.9358 25.2802 19.4093 24.0774 18.9805 23.0594C18.5517 22.0415 17.3674 21.5896 16.2673 21.689C15.8764 21.7243 15.4817 21.7241 15.0881 21.6877C14.027 21.5896 13.0065 21.2313 12.1169 20.6446C11.2274 20.0579 10.4962 19.2609 9.98827 18.3241C9.48032 17.3874 9.21123 16.3398 9.20485 15.2742C9.19846 14.2086 9.45498 13.1578 9.95167 12.215C10.4484 11.2723 11.1699 10.4665 12.0524 9.86918C12.9348 9.27185 13.951 8.90138 15.0108 8.79058C15.404 8.74948 15.7986 8.74458 16.1899 8.77519C17.2911 8.86132 18.4699 8.39533 18.8865 7.37233Z"/>
</mask>
<path d="M18.8865 7.37233C19.3031 6.34933 18.8152 5.1522 17.7318 4.93685C16.7023 4.7322 15.6443 4.68233 14.5928 4.79225C12.8755 4.9718 11.2289 5.57211 9.79892 6.54002C8.36897 7.50793 7.19979 8.81355 6.39495 10.3412C5.59011 11.8689 5.17446 13.5716 5.1848 15.2983C5.19515 17.025 5.63118 18.7225 6.45427 20.2404C7.27735 21.7583 8.46209 23.0499 9.90354 24.0006C11.345 24.9513 12.9987 25.5318 14.7181 25.6908C15.7707 25.7881 16.8281 25.7255 17.8551 25.5086C18.9358 25.2802 19.4093 24.0774 18.9805 23.0594C18.5517 22.0415 17.3674 21.5896 16.2673 21.689C15.8764 21.7243 15.4817 21.7241 15.0881 21.6877C14.027 21.5896 13.0065 21.2313 12.1169 20.6446C11.2274 20.0579 10.4962 19.2609 9.98827 18.3241C9.48032 17.3874 9.21123 16.3398 9.20485 15.2742C9.19846 14.2086 9.45498 13.1578 9.95167 12.215C10.4484 11.2723 11.1699 10.4665 12.0524 9.86918C12.9348 9.27185 13.951 8.90138 15.0108 8.79058C15.404 8.74948 15.7986 8.74458 16.1899 8.77519C17.2911 8.86132 18.4699 8.39533 18.8865 7.37233Z" fill="#131313" stroke="black" stroke-width="2" mask="url(#path-2-inside-1_357_2114)"/>
</svg>
