<svg width="320" height="190" viewBox="0 0 320 190" fill="none" xmlns="http://www.w3.org/2000/svg">
<path fill-rule="evenodd" clip-rule="evenodd" d="M15 0H217.777C217.777 0 217.777 0 217.778 0C222.687 0 226.666 1.77221 226.666 3.95833C226.666 6.14446 222.687 7.91667 217.778 7.91667C217.751 7.91667 217.724 7.91661 217.697 7.91651H26.334C19.1543 7.91651 13.334 13.7368 13.334 20.9165V169.083C13.334 176.263 19.1543 182.083 26.334 182.083H75.5545C75.5546 182.083 75.5547 182.083 75.5547 182.083C75.5547 182.083 75.5548 182.083 75.5548 182.083H75.5549C80.4641 182.083 84.4438 183.856 84.4438 186.042C84.4438 188.228 80.4641 190 75.5549 190L75.4722 190H15C6.71573 190 0 183.284 0 175V15C0 6.71573 6.71573 0 15 0ZM305 190H106.749L106.666 190C101.757 190 97.7773 188.228 97.7773 186.042C97.7773 183.856 101.757 182.084 106.666 182.083C106.666 182.083 106.666 182.083 106.666 182.083C106.666 182.083 106.666 182.083 106.666 182.083H293.667C300.847 182.083 306.667 176.263 306.667 169.083V20.9165C306.667 13.7368 300.847 7.91651 293.667 7.91651H248.969L248.889 7.91667C243.98 7.91667 240 6.14446 240 3.95833C240 1.77227 243.979 0.00010282 248.888 0H248.889H305C313.284 0 320 6.71573 320 15V175C320 183.284 313.284 190 305 190Z" fill="#676A74"/>
</svg>
