<svg width="177" height="35" viewBox="0 0 177 35" fill="none" xmlns="http://www.w3.org/2000/svg">
<path d="M1.98 1.92V12H6.39C8.28 12 9.988 11.216 9.988 8.766C9.988 6.736 8.588 5.56 6.362 5.56H4.22V3.95H9.302V1.92H1.98ZM4.22 7.52H6.18C7.342 7.52 7.706 8.066 7.706 8.724C7.706 9.536 7.342 10.04 6.292 10.04H4.22V7.52ZM11.8655 8.402C11.8655 9.424 11.9215 10.502 11.0955 10.488C10.8995 10.488 10.7035 10.418 10.5495 10.334V12C10.6755 12.07 11.2775 12.21 11.6835 12.21C13.4055 12.21 13.8255 10.642 13.8255 9.102V6.47H15.7295V12H17.8295V4.72H11.8655V8.402ZM23.5237 11.244C23.5517 11.482 23.6357 11.818 23.8457 12H25.9597C25.7077 11.734 25.5397 11.258 25.5397 10.516V7.604C25.5397 5.35 24.2517 4.51 22.3897 4.51C21.0317 4.51 19.6037 5.028 19.2397 6.708L21.0177 7.296C21.1577 6.764 21.4797 6.218 22.2917 6.218C23.1737 6.218 23.4397 6.806 23.4397 7.282V7.45C23.0757 7.618 22.6277 7.702 21.8717 7.786C20.1077 7.996 19.0157 8.584 19.0157 10.152C19.0157 11.496 20.1217 12.21 21.4377 12.21C22.3057 12.21 22.9217 11.972 23.5237 11.244ZM23.4397 9.69C23.2017 10.18 22.5857 10.642 21.9277 10.642C21.3257 10.642 21.1297 10.334 21.1157 10.012C21.0877 9.438 21.5077 9.2 22.1517 9.074C22.8517 8.934 23.1877 8.808 23.4397 8.71V9.69ZM27.145 12H29.217V6.47H32.269V4.72H27.145V12ZM32.9047 8.36C32.9047 11.048 34.5707 12.21 36.5167 12.21C38.4627 12.21 40.1287 11.048 40.1287 8.36C40.1287 5.672 38.4627 4.51 36.5167 4.51C34.5707 4.51 32.9047 5.672 32.9047 8.36ZM35.0047 8.36C35.0047 7.002 35.5507 6.26 36.5167 6.26C37.4827 6.26 38.0287 7.002 38.0287 8.36C38.0287 9.718 37.4827 10.46 36.5167 10.46C35.5507 10.46 35.0047 9.718 35.0047 8.36ZM40.6277 6.47H42.8257V12.014H44.9257V6.47H47.1237V4.72H40.6277V6.47ZM48.1723 12H51.6023C53.0863 12 54.3183 11.482 54.3183 9.97C54.3183 9.242 53.8423 8.43 52.8203 8.22C53.5343 8.01 53.9963 7.352 53.9963 6.666C53.9963 5.056 52.5263 4.72 51.1683 4.72H48.1723V12ZM50.2723 6.33H50.7063C51.3223 6.33 51.8683 6.316 51.8683 6.876C51.8683 7.506 51.2523 7.52 50.4543 7.52H50.2723V6.33ZM50.2723 9.13H50.6503C51.8823 9.13 52.1903 9.242 52.1903 9.774C52.1903 10.278 51.6723 10.39 50.7343 10.39H50.2723V9.13ZM55.0258 8.36C55.0258 11.048 56.6918 12.21 58.6378 12.21C60.5838 12.21 62.2498 11.048 62.2498 8.36C62.2498 5.672 60.5838 4.51 58.6378 4.51C56.6918 4.51 55.0258 5.672 55.0258 8.36ZM57.1258 8.36C57.1258 7.002 57.6718 6.26 58.6378 6.26C59.6038 6.26 60.1498 7.002 60.1498 8.36C60.1498 9.718 59.6038 10.46 58.6378 10.46C57.6718 10.46 57.1258 9.718 57.1258 8.36ZM65.4755 14.8V11.37C65.8955 12.028 66.5815 12.21 67.1695 12.21C68.9055 12.21 70.3755 10.908 70.3755 8.36C70.3755 5.812 68.9755 4.51 67.2395 4.51C66.4135 4.51 65.7555 4.874 65.3355 5.574V4.72H63.3755V14.8H65.4755ZM65.3215 8.36C65.3215 6.932 65.9795 6.26 66.8055 6.26C67.6315 6.26 68.2755 6.932 68.2755 8.36C68.2755 9.788 67.6875 10.46 66.7915 10.46C65.8955 10.46 65.3215 9.788 65.3215 8.36ZM71.4966 12H73.6946L76.1166 7.786V12H78.2166V4.72H76.0186L73.5966 8.976V4.72H71.4966V12ZM79.2644 6.47H81.4624V12.014H83.5624V6.47H85.7604V4.72H79.2644V6.47ZM93.3503 8.962C93.3503 8.934 93.3643 8.5 93.3643 8.066C93.3643 5.63 91.6983 4.51 89.8643 4.51C88.0023 4.51 86.2523 5.672 86.2523 8.36C86.2523 11.048 87.9883 12.21 89.8643 12.21C91.6143 12.21 92.6923 11.468 93.2383 10.026L91.2783 9.62C91.1103 10.082 90.6763 10.46 90.0043 10.46C89.0663 10.46 88.4083 9.97 88.3523 8.962H93.3503ZM89.8083 6.26C90.6203 6.26 91.1803 6.764 91.2363 7.534H88.3803C88.4643 6.736 89.1083 6.26 89.8083 6.26ZM95.0315 8.402C95.0315 9.424 95.0875 10.502 94.2615 10.488C94.0655 10.488 93.8695 10.418 93.7155 10.334V12C93.8415 12.07 94.4435 12.21 94.8495 12.21C96.5715 12.21 96.9915 10.642 96.9915 9.102V6.47H98.8955V12H100.996V4.72H95.0315V8.402ZM102.532 12H105.92C107.124 12 108.608 11.202 108.608 9.452C108.608 7.534 107.054 7.03 105.5 7.03H104.632V4.72H102.532V12ZM104.632 8.598H105.08C105.99 8.598 106.48 8.794 106.48 9.452C106.48 10.11 105.976 10.292 104.954 10.292H104.632V8.598ZM109.655 12H111.755V9.2H114.135V12H116.235V4.72H114.135V7.45H111.755V4.72H109.655V12ZM124.636 12H126.736V4.72H124.636V12ZM117.776 12H121.164C122.368 12 123.852 11.202 123.852 9.452C123.852 7.534 122.298 7.03 120.744 7.03H119.876V4.72H117.776V12ZM119.876 8.598H120.324C121.234 8.598 121.724 8.794 121.724 9.452C121.724 10.11 121.22 10.292 120.198 10.292H119.876V8.598ZM132.532 1.92C132.462 2.48 132.028 2.704 131.636 2.704C131.244 2.704 130.81 2.48 130.74 1.92H129.27C129.27 3.236 130.236 3.978 131.636 3.978C133.036 3.978 134.002 3.25 134.002 1.92H132.532ZM128.276 12H130.474L132.896 7.786V12H134.996V4.72H132.798L130.376 8.976V4.72H128.276V12ZM146.436 8.36C146.436 6.652 147.136 6.26 147.64 6.26C148.284 6.26 148.97 6.792 148.97 8.36C148.97 9.998 148.27 10.46 147.626 10.46C146.982 10.46 146.436 9.998 146.436 8.36ZM144.63 8.36C144.63 9.998 144.084 10.46 143.44 10.46C142.796 10.46 142.096 9.998 142.096 8.36C142.096 6.792 142.782 6.26 143.426 6.26C143.93 6.26 144.63 6.652 144.63 8.36ZM146.59 14.8V11.37C146.856 11.818 147.276 12.21 148.144 12.21C149.88 12.21 151.07 10.558 151.07 8.36C151.07 6.162 150.02 4.51 148.214 4.51C147.248 4.51 146.786 4.986 146.59 5.294V1.71L144.49 2.27V5.294C144.294 4.986 143.832 4.51 142.866 4.51C141.06 4.51 140.01 6.162 140.01 8.36C140.01 10.558 141.2 12.21 142.936 12.21C143.804 12.21 144.224 11.818 144.49 11.37V14.8H146.59ZM151.768 8.36C151.768 11.048 153.434 12.21 155.38 12.21C157.326 12.21 158.992 11.048 158.992 8.36C158.992 5.672 157.326 4.51 155.38 4.51C153.434 4.51 151.768 5.672 151.768 8.36ZM153.868 8.36C153.868 7.002 154.414 6.26 155.38 6.26C156.346 6.26 156.892 7.002 156.892 8.36C156.892 9.718 156.346 10.46 155.38 10.46C154.414 10.46 153.868 9.718 153.868 8.36ZM160.118 12H162.218V9.2H164.598V12H166.698V4.72H164.598V7.45H162.218V4.72H160.118V12ZM169.051 7.52C169.051 9.242 168.771 10.25 167.805 10.25H167.539V13.778H169.569V12H173.811V13.778H175.841V10.25H174.875V4.72H169.051V7.52ZM170.297 10.25C170.913 9.928 171.011 8.99 171.011 8.08V6.47H172.775V10.25H170.297Z" fill="#2C2B29"/>
<path d="M4.536 22.908C4.536 22.152 4.886 21.802 5.376 21.592L4.858 20.71C4.088 21.046 3.5 21.718 3.5 22.908V25.008H5.614V22.908H4.536ZM1.736 22.908C1.736 22.152 2.086 21.802 2.576 21.592L2.058 20.71C1.288 21.046 0.7 21.718 0.7 22.908V25.008H2.814V22.908H1.736ZM8.58441 23.832C8.58441 26.114 8.59841 28.984 6.98841 28.984H6.45641V33.366H8.69641V31H14.8144V33.366H17.0544V28.984H15.8504V20.92H8.58441V23.832ZM13.6104 28.984H9.52241C10.8104 28.368 10.7544 25.652 10.7544 23.118V22.95H13.6104V28.984ZM17.5492 27.36C17.5492 30.048 19.2152 31.21 21.1612 31.21C23.1072 31.21 24.7732 30.048 24.7732 27.36C24.7732 24.672 23.1072 23.51 21.1612 23.51C19.2152 23.51 17.5492 24.672 17.5492 27.36ZM19.6492 27.36C19.6492 26.002 20.1952 25.26 21.1612 25.26C22.1272 25.26 22.6732 26.002 22.6732 27.36C22.6732 28.718 22.1272 29.46 21.1612 29.46C20.1952 29.46 19.6492 28.718 19.6492 27.36ZM32.3109 20.5C32.1149 20.682 31.7089 20.78 31.3029 20.808L29.4689 20.92C26.1089 21.13 25.5489 24.252 25.5489 26.94C25.5489 29.964 27.2289 31.21 29.1889 31.21C31.1909 31.21 32.8009 29.922 32.8009 27.542C32.8009 25.232 31.4569 23.944 29.5529 23.944C28.8529 23.944 27.9429 24.168 27.3829 24.966C27.5089 23.748 28.0829 23.09 29.2029 23.006L31.1629 22.866C31.4709 22.838 31.9189 22.768 32.1289 22.586L32.3109 20.5ZM27.6769 27.598C27.6769 26.31 28.3209 25.75 29.1889 25.75C30.0569 25.75 30.7009 26.31 30.7009 27.598C30.7009 28.886 30.0569 29.46 29.1889 29.46C28.3209 29.46 27.6769 28.886 27.6769 27.598ZM36.0243 33.8V30.37C36.4443 31.028 37.1303 31.21 37.7183 31.21C39.4543 31.21 40.9243 29.908 40.9243 27.36C40.9243 24.812 39.5243 23.51 37.7883 23.51C36.9623 23.51 36.3043 23.874 35.8843 24.574V23.72H33.9243V33.8H36.0243ZM35.8703 27.36C35.8703 25.932 36.5283 25.26 37.3543 25.26C38.1803 25.26 38.8243 25.932 38.8243 27.36C38.8243 28.788 38.2363 29.46 37.3403 29.46C36.4443 29.46 35.8703 28.788 35.8703 27.36ZM41.6254 27.36C41.6254 30.048 43.2914 31.21 45.2374 31.21C47.1834 31.21 48.8494 30.048 48.8494 27.36C48.8494 24.672 47.1834 23.51 45.2374 23.51C43.2914 23.51 41.6254 24.672 41.6254 27.36ZM43.7254 27.36C43.7254 26.002 44.2714 25.26 45.2374 25.26C46.2034 25.26 46.7494 26.002 46.7494 27.36C46.7494 28.718 46.2034 29.46 45.2374 29.46C44.2714 29.46 43.7254 28.718 43.7254 27.36ZM56.6531 27.962C56.6531 27.934 56.6671 27.5 56.6671 27.066C56.6671 24.63 55.0011 23.51 53.1671 23.51C51.3051 23.51 49.5551 24.672 49.5551 27.36C49.5551 30.048 51.2911 31.21 53.1671 31.21C54.9171 31.21 55.9951 30.468 56.5411 29.026L54.5811 28.62C54.4131 29.082 53.9791 29.46 53.3071 29.46C52.3691 29.46 51.7111 28.97 51.6551 27.962H56.6531ZM53.1111 25.26C53.9231 25.26 54.4831 25.764 54.5391 26.534H51.6831C51.7671 25.736 52.4111 25.26 53.1111 25.26ZM63.3582 27.36C63.3582 26.002 63.8622 25.26 64.7302 25.26C65.4022 25.26 65.8782 25.624 66.0322 26.492L68.0902 26.184C67.6982 24.238 66.2982 23.51 64.7302 23.51C62.8542 23.51 61.2582 24.672 61.2582 27.36C61.2582 30.048 62.8542 31.21 64.7302 31.21C66.2982 31.21 67.6982 30.496 68.0902 28.55L66.0182 28.256C65.8642 29.11 65.4022 29.46 64.7302 29.46C63.8202 29.46 63.3582 28.718 63.3582 27.36ZM75.8894 27.962C75.8894 27.934 75.9034 27.5 75.9034 27.066C75.9034 24.63 74.2374 23.51 72.4034 23.51C70.5414 23.51 68.7914 24.672 68.7914 27.36C68.7914 30.048 70.5274 31.21 72.4034 31.21C74.1534 31.21 75.2314 30.468 75.7774 29.026L73.8174 28.62C73.6494 29.082 73.2154 29.46 72.5434 29.46C71.6054 29.46 70.9474 28.97 70.8914 27.962H75.8894ZM72.3474 25.26C73.1594 25.26 73.7194 25.764 73.7754 26.534H70.9194C71.0034 25.736 71.6474 25.26 72.3474 25.26ZM79.118 33.8V30.37C79.538 31.028 80.224 31.21 80.812 31.21C82.548 31.21 84.018 29.908 84.018 27.36C84.018 24.812 82.618 23.51 80.882 23.51C80.056 23.51 79.398 23.874 78.978 24.574V23.72H77.018V33.8H79.118ZM78.964 27.36C78.964 25.932 79.622 25.26 80.448 25.26C81.274 25.26 81.918 25.932 81.918 27.36C81.918 28.788 81.33 29.46 80.434 29.46C79.538 29.46 78.964 28.788 78.964 27.36ZM85.6777 26.52C85.6777 28.242 85.3977 29.25 84.4317 29.25H84.1657V32.778H86.1957V31H90.4377V32.778H92.4677V29.25H91.5017V23.72H85.6777V26.52ZM86.9237 29.25C87.5397 28.928 87.6377 27.99 87.6377 27.08V25.47H89.4017V29.25H86.9237ZM99.9929 27.962C99.9929 27.934 100.007 27.5 100.007 27.066C100.007 24.63 98.3409 23.51 96.5069 23.51C94.6449 23.51 92.8949 24.672 92.8949 27.36C92.8949 30.048 94.6309 31.21 96.5069 31.21C98.2569 31.21 99.3349 30.468 99.8809 29.026L97.9209 28.62C97.7529 29.082 97.3189 29.46 96.6469 29.46C95.7089 29.46 95.0509 28.97 94.9949 27.962H99.9929ZM96.4509 25.26C97.2629 25.26 97.8229 25.764 97.8789 26.534H95.0229C95.1069 25.736 95.7509 25.26 96.4509 25.26ZM100.842 26.058C100.842 27.738 101.64 28.844 103.53 28.844C104.16 28.844 104.776 28.648 105.252 28.354V31H107.352V23.72H105.252V26.744C104.972 27.024 104.468 27.192 104.006 27.192C103.124 27.192 102.942 26.632 102.942 25.4V23.72H100.842V26.058ZM108.887 31H110.987V28.2H111.225C111.785 28.2 112.149 28.41 112.415 28.914L113.381 31H115.691L114.487 28.578C114.151 27.892 113.605 27.374 112.975 27.22V27.164C113.605 27.038 113.899 26.688 114.123 26.212C114.347 25.736 114.459 25.512 114.949 25.512H115.173L115.383 23.65H114.949C113.955 23.65 113.395 23.832 112.947 24.658C112.821 24.882 112.569 25.638 112.289 25.974C111.925 26.408 111.645 26.45 111.225 26.45H110.987V23.72H108.887V31ZM115.891 27.36C115.891 30.048 117.557 31.21 119.503 31.21C121.449 31.21 123.115 30.048 123.115 27.36C123.115 24.672 121.449 23.51 119.503 23.51C117.557 23.51 115.891 24.672 115.891 27.36ZM117.991 27.36C117.991 26.002 118.537 25.26 119.503 25.26C120.469 25.26 121.015 26.002 121.015 27.36C121.015 28.718 120.469 29.46 119.503 29.46C118.537 29.46 117.991 28.718 117.991 27.36ZM125.249 23.02C125.249 23.776 124.899 24.126 124.409 24.336L124.927 25.218C125.697 24.882 126.285 24.21 126.285 23.02V20.92H124.171V23.02H125.249ZM128.049 23.02C128.049 23.776 127.699 24.126 127.209 24.336L127.727 25.218C128.497 24.882 129.085 24.21 129.085 23.02V20.92H126.971V23.02H128.049Z" fill="#2C2B29"/>
</svg>
