<svg width="227" height="48" viewBox="0 0 227 48" fill="none" xmlns="http://www.w3.org/2000/svg">
<path d="M2.26 2.04V15H7.93C10.36 15 12.556 13.992 12.556 10.842C12.556 8.232 10.756 6.72 7.894 6.72H5.14V4.65H11.674V2.04H2.26ZM5.14 9.24H7.66C9.154 9.24 9.622 9.942 9.622 10.788C9.622 11.832 9.154 12.48 7.804 12.48H5.14V9.24ZM14.97 10.374C14.97 11.688 15.042 13.074 13.98 13.056C13.728 13.056 13.476 12.966 13.278 12.858V15C13.44 15.09 14.214 15.27 14.736 15.27C16.95 15.27 17.49 13.254 17.49 11.274V7.89H19.938V15H22.638V5.64H14.97V10.374ZM29.959 14.028C29.995 14.334 30.103 14.766 30.373 15H33.091C32.767 14.658 32.551 14.046 32.551 13.092V9.348C32.551 6.45 30.895 5.37 28.501 5.37C26.755 5.37 24.919 6.036 24.451 8.196L26.737 8.952C26.917 8.268 27.331 7.566 28.375 7.566C29.509 7.566 29.851 8.322 29.851 8.934V9.15C29.383 9.366 28.807 9.474 27.835 9.582C25.567 9.852 24.163 10.608 24.163 12.624C24.163 14.352 25.585 15.27 27.277 15.27C28.393 15.27 29.185 14.964 29.959 14.028ZM29.851 12.03C29.545 12.66 28.753 13.254 27.907 13.254C27.133 13.254 26.881 12.858 26.863 12.444C26.827 11.706 27.367 11.4 28.195 11.238C29.095 11.058 29.527 10.896 29.851 10.77V12.03ZM34.615 15H37.279V7.89H41.203V5.64H34.615V15ZM42.0203 10.32C42.0203 13.776 44.1623 15.27 46.6643 15.27C49.1663 15.27 51.3083 13.776 51.3083 10.32C51.3083 6.864 49.1663 5.37 46.6643 5.37C44.1623 5.37 42.0203 6.864 42.0203 10.32ZM44.7203 10.32C44.7203 8.574 45.4223 7.62 46.6643 7.62C47.9063 7.62 48.6083 8.574 48.6083 10.32C48.6083 12.066 47.9063 13.02 46.6643 13.02C45.4223 13.02 44.7203 12.066 44.7203 10.32ZM51.9498 7.89H54.7758V15.018H57.4758V7.89H60.3018V5.64H51.9498V7.89ZM61.6502 15H66.0602C67.9682 15 69.5522 14.334 69.5522 12.39C69.5522 11.454 68.9402 10.41 67.6262 10.14C68.5442 9.87 69.1382 9.024 69.1382 8.142C69.1382 6.072 67.2482 5.64 65.5022 5.64H61.6502V15ZM64.3502 7.71H64.9082C65.7002 7.71 66.4022 7.692 66.4022 8.412C66.4022 9.222 65.6102 9.24 64.5842 9.24H64.3502V7.71ZM64.3502 11.31H64.8362C66.4202 11.31 66.8162 11.454 66.8162 12.138C66.8162 12.786 66.1502 12.93 64.9442 12.93H64.3502V11.31ZM70.4617 10.32C70.4617 13.776 72.6037 15.27 75.1057 15.27C77.6077 15.27 79.7497 13.776 79.7497 10.32C79.7497 6.864 77.6077 5.37 75.1057 5.37C72.6037 5.37 70.4617 6.864 70.4617 10.32ZM73.1617 10.32C73.1617 8.574 73.8637 7.62 75.1057 7.62C76.3477 7.62 77.0497 8.574 77.0497 10.32C77.0497 12.066 76.3477 13.02 75.1057 13.02C73.8637 13.02 73.1617 12.066 73.1617 10.32ZM83.897 18.6V14.19C84.437 15.036 85.319 15.27 86.075 15.27C88.307 15.27 90.197 13.596 90.197 10.32C90.197 7.044 88.397 5.37 86.165 5.37C85.103 5.37 84.257 5.838 83.717 6.738V5.64H81.197V18.6H83.897ZM83.699 10.32C83.699 8.484 84.545 7.62 85.607 7.62C86.669 7.62 87.497 8.484 87.497 10.32C87.497 12.156 86.741 13.02 85.589 13.02C84.437 13.02 83.699 12.156 83.699 10.32ZM91.6384 15H94.4644L97.5784 9.582V15H100.278V5.64H97.4524L94.3384 11.112V5.64H91.6384V15ZM101.626 7.89H104.452V15.018H107.152V7.89H109.978V5.64H101.626V7.89ZM119.736 11.094C119.736 11.058 119.754 10.5 119.754 9.942C119.754 6.81 117.612 5.37 115.254 5.37C112.86 5.37 110.61 6.864 110.61 10.32C110.61 13.776 112.842 15.27 115.254 15.27C117.504 15.27 118.89 14.316 119.592 12.462L117.072 11.94C116.856 12.534 116.298 13.02 115.434 13.02C114.228 13.02 113.382 12.39 113.31 11.094H119.736ZM115.182 7.62C116.226 7.62 116.946 8.268 117.018 9.258H113.346C113.454 8.232 114.282 7.62 115.182 7.62ZM121.898 10.374C121.898 11.688 121.97 13.074 120.908 13.056C120.656 13.056 120.404 12.966 120.206 12.858V15C120.368 15.09 121.142 15.27 121.664 15.27C123.878 15.27 124.418 13.254 124.418 11.274V7.89H126.866V15H129.566V5.64H121.898V10.374ZM131.541 15H135.897C137.445 15 139.353 13.974 139.353 11.724C139.353 9.258 137.355 8.61 135.357 8.61H134.241V5.64H131.541V15ZM134.241 10.626H134.817C135.987 10.626 136.617 10.878 136.617 11.724C136.617 12.57 135.969 12.804 134.655 12.804H134.241V10.626ZM140.699 15H143.399V11.4H146.459V15H149.159V5.64H146.459V9.15H143.399V5.64H140.699V15ZM159.96 15H162.66V5.64H159.96V15ZM151.14 15H155.496C157.044 15 158.952 13.974 158.952 11.724C158.952 9.258 156.954 8.61 154.956 8.61H153.84V5.64H151.14V15ZM153.84 10.626H154.416C155.586 10.626 156.216 10.878 156.216 11.724C156.216 12.57 155.568 12.804 154.254 12.804H153.84V10.626ZM170.112 2.04C170.022 2.76 169.464 3.048 168.96 3.048C168.456 3.048 167.898 2.76 167.808 2.04H165.918C165.918 3.732 167.16 4.686 168.96 4.686C170.76 4.686 172.002 3.75 172.002 2.04H170.112ZM164.64 15H167.466L170.58 9.582V15H173.28V5.64H170.454L167.34 11.112V5.64H164.64V15ZM187.989 10.32C187.989 8.124 188.889 7.62 189.537 7.62C190.365 7.62 191.247 8.304 191.247 10.32C191.247 12.426 190.347 13.02 189.519 13.02C188.691 13.02 187.989 12.426 187.989 10.32ZM185.667 10.32C185.667 12.426 184.965 13.02 184.137 13.02C183.309 13.02 182.409 12.426 182.409 10.32C182.409 8.304 183.291 7.62 184.119 7.62C184.767 7.62 185.667 8.124 185.667 10.32ZM188.187 18.6V14.19C188.529 14.766 189.069 15.27 190.185 15.27C192.417 15.27 193.947 13.146 193.947 10.32C193.947 7.494 192.597 5.37 190.275 5.37C189.033 5.37 188.439 5.982 188.187 6.378V1.77L185.487 2.49V6.378C185.235 5.982 184.641 5.37 183.399 5.37C181.077 5.37 179.727 7.494 179.727 10.32C179.727 13.146 181.257 15.27 183.489 15.27C184.605 15.27 185.145 14.766 185.487 14.19V18.6H188.187ZM194.845 10.32C194.845 13.776 196.987 15.27 199.489 15.27C201.991 15.27 204.133 13.776 204.133 10.32C204.133 6.864 201.991 5.37 199.489 5.37C196.987 5.37 194.845 6.864 194.845 10.32ZM197.545 10.32C197.545 8.574 198.247 7.62 199.489 7.62C200.731 7.62 201.433 8.574 201.433 10.32C201.433 12.066 200.731 13.02 199.489 13.02C198.247 13.02 197.545 12.066 197.545 10.32ZM205.58 15H208.28V11.4H211.34V15H214.04V5.64H211.34V9.15H208.28V5.64H205.58V15ZM217.065 9.24C217.065 11.454 216.705 12.75 215.463 12.75H215.121V17.286H217.731V15H223.185V17.286H225.795V12.75H224.553V5.64H217.065V9.24ZM218.667 12.75C219.459 12.336 219.585 11.13 219.585 9.96V7.89H221.853V12.75H218.667Z" fill="#2C2B29"/>
<path d="M5.832 30.596C5.832 29.624 6.282 29.174 6.912 28.904L6.246 27.77C5.256 28.202 4.5 29.066 4.5 30.596V33.296H7.218V30.596H5.832ZM2.232 30.596C2.232 29.624 2.682 29.174 3.312 28.904L2.646 27.77C1.656 28.202 0.9 29.066 0.9 30.596V33.296H3.618V30.596H2.232ZM11.0371 31.784C11.0371 34.718 11.0551 38.408 8.98509 38.408H8.30109V44.042H11.1811V41H19.0471V44.042H21.9271V38.408H20.3791V28.04H11.0371V31.784ZM17.4991 38.408H12.2431C13.8991 37.616 13.8271 34.124 13.8271 30.866V30.65H17.4991V38.408ZM22.5633 36.32C22.5633 39.776 24.7053 41.27 27.2073 41.27C29.7093 41.27 31.8513 39.776 31.8513 36.32C31.8513 32.864 29.7093 31.37 27.2073 31.37C24.7053 31.37 22.5633 32.864 22.5633 36.32ZM25.2633 36.32C25.2633 34.574 25.9653 33.62 27.2073 33.62C28.4493 33.62 29.1513 34.574 29.1513 36.32C29.1513 38.066 28.4493 39.02 27.2073 39.02C25.9653 39.02 25.2633 38.066 25.2633 36.32ZM41.5426 27.5C41.2906 27.734 40.7686 27.86 40.2466 27.896L37.8886 28.04C33.5686 28.31 32.8486 32.324 32.8486 35.78C32.8486 39.668 35.0086 41.27 37.5286 41.27C40.1026 41.27 42.1726 39.614 42.1726 36.554C42.1726 33.584 40.4446 31.928 37.9966 31.928C37.0966 31.928 35.9266 32.216 35.2066 33.242C35.3686 31.676 36.1066 30.83 37.5466 30.722L40.0666 30.542C40.4626 30.506 41.0386 30.416 41.3086 30.182L41.5426 27.5ZM35.5846 36.626C35.5846 34.97 36.4126 34.25 37.5286 34.25C38.6446 34.25 39.4726 34.97 39.4726 36.626C39.4726 38.282 38.6446 39.02 37.5286 39.02C36.4126 39.02 35.5846 38.282 35.5846 36.626ZM46.317 44.6V40.19C46.857 41.036 47.739 41.27 48.495 41.27C50.727 41.27 52.617 39.596 52.617 36.32C52.617 33.044 50.817 31.37 48.585 31.37C47.523 31.37 46.677 31.838 46.137 32.738V31.64H43.617V44.6H46.317ZM46.119 36.32C46.119 34.484 46.965 33.62 48.027 33.62C49.089 33.62 49.917 34.484 49.917 36.32C49.917 38.156 49.161 39.02 48.009 39.02C46.857 39.02 46.119 38.156 46.119 36.32ZM53.5184 36.32C53.5184 39.776 55.6604 41.27 58.1624 41.27C60.6644 41.27 62.8064 39.776 62.8064 36.32C62.8064 32.864 60.6644 31.37 58.1624 31.37C55.6604 31.37 53.5184 32.864 53.5184 36.32ZM56.2184 36.32C56.2184 34.574 56.9204 33.62 58.1624 33.62C59.4044 33.62 60.1064 34.574 60.1064 36.32C60.1064 38.066 59.4044 39.02 58.1624 39.02C56.9204 39.02 56.2184 38.066 56.2184 36.32ZM72.8397 37.094C72.8397 37.058 72.8577 36.5 72.8577 35.942C72.8577 32.81 70.7157 31.37 68.3577 31.37C65.9637 31.37 63.7137 32.864 63.7137 36.32C63.7137 39.776 65.9457 41.27 68.3577 41.27C70.6077 41.27 71.9937 40.316 72.6957 38.462L70.1757 37.94C69.9597 38.534 69.4017 39.02 68.5377 39.02C67.3317 39.02 66.4857 38.39 66.4137 37.094H72.8397ZM68.2857 33.62C69.3297 33.62 70.0497 34.268 70.1217 35.258H66.4497C66.5577 34.232 67.3857 33.62 68.2857 33.62ZM81.4605 36.32C81.4605 34.574 82.1085 33.62 83.2245 33.62C84.0885 33.62 84.7005 34.088 84.8985 35.204L87.5445 34.808C87.0405 32.306 85.2405 31.37 83.2245 31.37C80.8125 31.37 78.7605 32.864 78.7605 36.32C78.7605 39.776 80.8125 41.27 83.2245 41.27C85.2405 41.27 87.0405 40.352 87.5445 37.85L84.8805 37.472C84.6825 38.57 84.0885 39.02 83.2245 39.02C82.0545 39.02 81.4605 38.066 81.4605 36.32ZM97.5721 37.094C97.5721 37.058 97.5901 36.5 97.5901 35.942C97.5901 32.81 95.4481 31.37 93.0901 31.37C90.6961 31.37 88.4461 32.864 88.4461 36.32C88.4461 39.776 90.6781 41.27 93.0901 41.27C95.3401 41.27 96.7261 40.316 97.4281 38.462L94.9081 37.94C94.6921 38.534 94.1341 39.02 93.2701 39.02C92.0641 39.02 91.2181 38.39 91.1461 37.094H97.5721ZM93.0181 33.62C94.0621 33.62 94.7821 34.268 94.8541 35.258H91.1821C91.2901 34.232 92.1181 33.62 93.0181 33.62ZM101.723 44.6V40.19C102.263 41.036 103.145 41.27 103.901 41.27C106.133 41.27 108.023 39.596 108.023 36.32C108.023 33.044 106.223 31.37 103.991 31.37C102.929 31.37 102.083 31.838 101.543 32.738V31.64H99.0232V44.6H101.723ZM101.525 36.32C101.525 34.484 102.371 33.62 103.433 33.62C104.495 33.62 105.323 34.484 105.323 36.32C105.323 38.156 104.567 39.02 103.415 39.02C102.263 39.02 101.525 38.156 101.525 36.32ZM110.157 35.24C110.157 37.454 109.797 38.75 108.555 38.75H108.213V43.286H110.823V41H116.277V43.286H118.887V38.75H117.645V31.64H110.157V35.24ZM111.759 38.75C112.551 38.336 112.677 37.13 112.677 35.96V33.89H114.945V38.75H111.759ZM128.562 37.094C128.562 37.058 128.58 36.5 128.58 35.942C128.58 32.81 126.438 31.37 124.08 31.37C121.686 31.37 119.436 32.864 119.436 36.32C119.436 39.776 121.668 41.27 124.08 41.27C126.33 41.27 127.716 40.316 128.418 38.462L125.898 37.94C125.682 38.534 125.124 39.02 124.26 39.02C123.054 39.02 122.208 38.39 122.136 37.094H128.562ZM124.008 33.62C125.052 33.62 125.772 34.268 125.844 35.258H122.172C122.28 34.232 123.108 33.62 124.008 33.62ZM129.653 34.646C129.653 36.806 130.679 38.228 133.109 38.228C133.919 38.228 134.711 37.976 135.323 37.598V41H138.023V31.64H135.323V35.528C134.963 35.888 134.315 36.104 133.721 36.104C132.587 36.104 132.353 35.384 132.353 33.8V31.64H129.653V34.646ZM139.998 41H142.698V37.4H143.004C143.724 37.4 144.192 37.67 144.534 38.318L145.776 41H148.746L147.198 37.886C146.766 37.004 146.064 36.338 145.254 36.14V36.068C146.064 35.906 146.442 35.456 146.73 34.844C147.018 34.232 147.162 33.944 147.792 33.944H148.08L148.35 31.55H147.792C146.514 31.55 145.794 31.784 145.218 32.846C145.056 33.134 144.732 34.106 144.372 34.538C143.904 35.096 143.544 35.15 143.004 35.15H142.698V31.64H139.998V41ZM149.003 36.32C149.003 39.776 151.145 41.27 153.647 41.27C156.149 41.27 158.291 39.776 158.291 36.32C158.291 32.864 156.149 31.37 153.647 31.37C151.145 31.37 149.003 32.864 149.003 36.32ZM151.703 36.32C151.703 34.574 152.405 33.62 153.647 33.62C154.889 33.62 155.591 34.574 155.591 36.32C155.591 38.066 154.889 39.02 153.647 39.02C152.405 39.02 151.703 38.066 151.703 36.32ZM161.034 30.74C161.034 31.712 160.584 32.162 159.954 32.432L160.62 33.566C161.61 33.134 162.366 32.27 162.366 30.74V28.04H159.648V30.74H161.034ZM164.634 30.74C164.634 31.712 164.184 32.162 163.554 32.432L164.22 33.566C165.21 33.134 165.966 32.27 165.966 30.74V28.04H163.248V30.74H164.634Z" fill="#2C2B29"/>
</svg>
