<svg width="41" height="44" viewBox="0 0 41 44" fill="none" xmlns="http://www.w3.org/2000/svg">
<rect x="9.5" y="14.5" width="31" height="29" fill="#FEFEFE" stroke="#676A74"/>
<path d="M25.218 39.9507L11.6183 18.5144L11.5617 18.4252L11.4877 18.3498C11.3798 18.2399 11.1085 17.8989 10.6817 17.3097C10.2722 16.7443 9.75708 16.0033 9.17719 15.1427C8.0177 13.4219 6.61035 11.2395 5.28761 9.05804C3.96177 6.87144 2.73456 4.70806 1.92575 3.01838C1.64639 2.43477 1.4259 1.926 1.26924 1.50365C1.56618 1.70599 1.91036 1.96327 2.29751 2.27341C3.67022 3.37306 5.41361 4.99847 7.18154 6.73457C9.87221 9.37681 12.5337 12.1882 13.974 13.7097C14.4208 14.1817 14.7501 14.5296 14.9263 14.7097L24.5964 25.2695L25.338 26.0794L26.0751 25.2654L35.6249 14.7196C35.8661 14.4703 36.1392 14.1696 36.4368 13.842C37.0743 13.14 37.824 12.3146 38.6125 11.6073C38.8391 11.404 39.0534 11.2255 39.2529 11.074L25.218 39.9507ZM1.00104 0.471331C1.00133 0.471635 1.00126 0.477131 0.999995 0.486908C1.00013 0.475915 1.00076 0.471027 1.00104 0.471331Z" fill="#606FC2" stroke="#676A74" stroke-width="2"/>
</svg>
