<svg width="59" height="41" viewBox="0 0 59 41" fill="none" xmlns="http://www.w3.org/2000/svg">
<mask id="path-1-inside-1_391_3142" fill="white">
<path fill-rule="evenodd" clip-rule="evenodd" d="M5.5442 25.8638L41.9048 25.8638L37.5915 31.394C35.7233 33.7892 36.0473 37.3691 38.315 39.3901C40.5828 41.411 43.9356 41.1076 45.8037 38.7124L56.8739 24.5191C58.1254 22.9145 58.3931 20.7783 57.7517 18.9352C57.5764 18.0782 57.2107 17.2543 56.6481 16.5376L45.5335 2.37896C43.6579 -0.0103565 40.3043 -0.303119 38.043 1.72506C35.7818 3.75324 35.4692 7.33433 37.3448 9.72365L41.3798 14.8638L5.5442 14.8638C2.50664 14.8638 0.0442047 17.3262 0.0442047 20.3638C0.0442047 23.4014 2.50664 25.8638 5.5442 25.8638Z"/>
</mask>
<path fill-rule="evenodd" clip-rule="evenodd" d="M5.5442 25.8638L41.9048 25.8638L37.5915 31.394C35.7233 33.7892 36.0473 37.3691 38.315 39.3901C40.5828 41.411 43.9356 41.1076 45.8037 38.7124L56.8739 24.5191C58.1254 22.9145 58.3931 20.7783 57.7517 18.9352C57.5764 18.0782 57.2107 17.2543 56.6481 16.5376L45.5335 2.37896C43.6579 -0.0103565 40.3043 -0.303119 38.043 1.72506C35.7818 3.75324 35.4692 7.33433 37.3448 9.72365L41.3798 14.8638L5.5442 14.8638C2.50664 14.8638 0.0442047 17.3262 0.0442047 20.3638C0.0442047 23.4014 2.50664 25.8638 5.5442 25.8638Z" fill="white"/>
<path d="M41.9048 25.8638L44.2703 27.7088L48.0493 22.8638H41.9048V25.8638ZM37.5915 31.394L39.957 33.239L39.957 33.239L37.5915 31.394ZM45.8037 38.7124L43.4382 36.8674L45.8037 38.7124ZM56.8739 24.5191L59.2395 26.3641L59.2395 26.3641L56.8739 24.5191ZM57.7517 18.9352L54.8126 19.5364L54.8527 19.7323L54.9184 19.9212L57.7517 18.9352ZM56.6481 16.5376L54.2883 18.39L54.2883 18.39L56.6481 16.5376ZM45.5335 2.37896L47.8933 0.526535V0.526535L45.5335 2.37896ZM38.043 1.72506L36.04 -0.508236L38.043 1.72506ZM37.3448 9.72365L39.7046 7.87122L37.3448 9.72365ZM41.3798 14.8638V17.8638H47.5488L43.7396 13.0114L41.3798 14.8638ZM41.9048 22.8638L5.5442 22.8638V28.8638L41.9048 28.8638V22.8638ZM39.957 33.239L44.2703 27.7088L39.5392 24.0188L35.2259 29.549L39.957 33.239ZM40.311 37.1503C39.2233 36.181 39.061 34.3879 39.957 33.239L35.2259 29.549C32.3857 33.1905 32.8713 38.5572 36.3191 41.6298L40.311 37.1503ZM43.4382 36.8674C42.6365 37.8951 41.2841 38.0175 40.311 37.1503L36.3191 41.6298C39.8815 44.8044 45.2346 44.32 48.1693 40.5574L43.4382 36.8674ZM54.5084 22.674L43.4382 36.8674L48.1693 40.5574L59.2395 26.3641L54.5084 22.674ZM54.9184 19.9212C55.25 20.8742 55.0881 21.9307 54.5084 22.674L59.2395 26.3641C61.1627 23.8983 61.5362 20.6824 60.5851 17.9492L54.9184 19.9212ZM54.2883 18.39C54.5489 18.7219 54.7258 19.1124 54.8126 19.5364L60.6909 18.334C60.427 17.0439 59.8725 15.7866 59.0079 14.6852L54.2883 18.39ZM43.1738 4.23139L54.2883 18.39L59.0079 14.6852L47.8933 0.526535L43.1738 4.23139ZM40.0461 3.95835C41.0164 3.08811 42.369 3.20619 43.1738 4.23139L47.8933 0.526535C44.9468 -3.22691 39.5922 -3.69435 36.04 -0.508236L40.0461 3.95835ZM39.7046 7.87122C38.8049 6.72513 38.9615 4.93122 40.0461 3.95835L36.04 -0.508236C32.6021 2.57526 32.1335 7.94353 34.985 11.5761L39.7046 7.87122ZM43.7396 13.0114L39.7046 7.87122L34.985 11.5761L39.0201 16.7162L43.7396 13.0114ZM5.5442 17.8638L41.3798 17.8638V11.8638L5.5442 11.8638V17.8638ZM3.0442 20.3638C3.0442 18.9831 4.16349 17.8638 5.5442 17.8638V11.8638C0.849781 11.8638 -2.9558 15.6694 -2.9558 20.3638H3.0442ZM5.5442 22.8638C4.16349 22.8638 3.0442 21.7445 3.0442 20.3638H-2.9558C-2.9558 25.0582 0.849781 28.8638 5.5442 28.8638V22.8638Z" fill="#676A74" mask="url(#path-1-inside-1_391_3142)"/>
</svg>
