<svg width="42" height="42" viewBox="0 0 42 42" fill="none" xmlns="http://www.w3.org/2000/svg">
<rect width="42" height="42" rx="9" fill="#FEFEFE"/>
<rect x="7" y="7" width="33" height="33" rx="7" fill="#FEFEFE"/>
<path fill-rule="evenodd" clip-rule="evenodd" d="M32 4H30C29.4477 4 29 4.44772 29 5C29 5.55228 29.4477 6 30 6H32C35.3137 6 38 8.68629 38 12V32C38 35.3137 35.3137 38 32 38H19C18.4477 38 18 38.4477 18 39C18 39.5523 18.4477 40 19 40H32C36.4183 40 40 36.4183 40 32V12C40 7.58172 36.4183 4 32 4ZM25 4H12C7.58172 4 4 7.58172 4 12V32C4 36.4183 7.58172 40 12 40H14C14.5523 40 15 39.5523 15 39C15 38.4477 14.5523 38 14 38H12C8.68629 38 6 35.3137 6 32V12C6 8.68629 8.68629 6 12 6H25C25.5523 6 26 5.55228 26 5C26 4.44772 25.5523 4 25 4Z" fill="#676A74"/>
<path d="M21.2705 18.5888L21.9918 19.3316L22.7091 18.5848L29.562 11.4497C30.1357 10.8523 31.0533 10.8499 31.6299 11.4436C32.2254 12.0568 32.2283 13.0679 31.6358 13.6848L24.7828 20.82L24.1138 21.5165L24.7867 22.2094L32.5515 30.2047C33.1471 30.8179 33.1499 31.829 32.5574 32.4459C31.9837 33.0433 31.0661 33.0457 30.4895 32.452L22.7247 24.4567L22.0033 23.7139L21.2861 24.4607L13.5163 32.5503C12.9426 33.1477 12.025 33.1501 11.4485 32.5564C10.8529 31.9432 10.8501 30.9321 11.4426 30.3152L19.2123 22.2255L19.8813 21.529L19.2085 20.8361L12.2693 13.691C11.6738 13.0778 11.6709 12.0666 12.2634 11.4497C12.8371 10.8524 13.7547 10.85 14.3313 11.4436L21.2705 18.5888Z" fill="white" stroke="#676A74" stroke-width="2"/>
</svg>
