<svg width="42" height="42" viewBox="0 0 42 42" fill="none" xmlns="http://www.w3.org/2000/svg">
<rect width="42" height="42" rx="9" fill="#FEFEFE"/>
<rect x="7" y="7" width="33" height="33" rx="7" fill="#97A2E1"/>
<path fill-rule="evenodd" clip-rule="evenodd" d="M32 4H30C29.4477 4 29 4.44772 29 5C29 5.55228 29.4477 6 30 6H32C35.3137 6 38 8.68629 38 12V32C38 35.3137 35.3137 38 32 38H19C18.4477 38 18 38.4477 18 39C18 39.5523 18.4477 40 19 40H32C36.4183 40 40 36.4183 40 32V12C40 7.58172 36.4183 4 32 4ZM25 4H12C7.58172 4 4 7.58172 4 12V32C4 36.4183 7.58172 40 12 40H14C14.5523 40 15 39.5523 15 39C15 38.4477 14.5523 38 14 38H12C8.68629 38 6 35.3137 6 32V12C6 8.68629 8.68629 6 12 6H25C25.5523 6 26 5.55228 26 5C26 4.44772 25.5523 4 25 4Z" fill="#676A74"/>
<path d="M11 16C11 15.4477 11.4477 15 12 15H32C32.5523 15 33 15.4477 33 16V17C33 17.5523 32.5523 18 32 18H12C11.4477 18 11 17.5523 11 17V16ZM11 22C11 21.4477 11.4477 21 12 21H32C32.5523 21 33 21.4477 33 22V23C33 23.5523 32.5523 24 32 24H12C11.4477 24 11 23.5523 11 23V22ZM11 28C11 27.4477 11.4477 27 12 27H32C32.5523 27 33 27.4477 33 28V29C33 29.5523 32.5523 30 32 30H12C11.4477 30 11 29.5523 11 29V28Z" fill="#FEFEFE" stroke="#676A74" stroke-width="2"/>
</svg>
