<svg width="42" height="42" viewBox="0 0 42 42" fill="none" xmlns="http://www.w3.org/2000/svg">
<rect width="42" height="42" rx="9" fill="#FEFEFE"/>
<rect x="7" y="7" width="33" height="33" rx="7" fill="#FEFEFE"/>
<path fill-rule="evenodd" clip-rule="evenodd" d="M32 4H30C29.4477 4 29 4.44772 29 5C29 5.55228 29.4477 6 30 6H32C35.3137 6 38 8.68629 38 12V32C38 35.3137 35.3137 38 32 38H19C18.4477 38 18 38.4477 18 39C18 39.5523 18.4477 40 19 40H32C36.4183 40 40 36.4183 40 32V12C40 7.58172 36.4183 4 32 4ZM25 4H12C7.58172 4 4 7.58172 4 12V32C4 36.4183 7.58172 40 12 40H14C14.5523 40 15 39.5523 15 39C15 38.4477 14.5523 38 14 38H12C8.68629 38 6 35.3137 6 32V12C6 8.68629 8.68629 6 12 6H25C25.5523 6 26 5.55228 26 5C26 4.44772 25.5523 4 25 4Z" fill="#676A74"/>
<ellipse cx="21" cy="33" rx="11" ry="2" fill="#FEFEFE"/>
<mask id="path-5-inside-1_391_2936" fill="white">
<path d="M17.0285 30.2536C16.9495 30.2051 16.8569 30.1829 16.7646 30.1906C13.89 30.4299 11.4665 30.8799 9.89616 31.4668C8.29996 32.0634 7.684 32.7645 8.15321 33.4507C8.62243 34.1369 10.1478 34.7657 12.4694 35.23C14.7911 35.6943 17.7653 35.9653 20.8853 35.9969C24.0054 36.0285 27.0782 35.8187 29.5803 35.4033C32.0823 34.9879 33.8588 34.3925 34.607 33.7186C35.3551 33.0448 35.0287 32.3341 33.6833 31.7077C32.3581 31.0907 30.1249 30.5931 27.3553 30.2969C27.2728 30.288 27.1891 30.3023 27.1141 30.3379C26.7007 30.5339 26.8044 31.1667 27.2561 31.2396C28.5677 31.4514 29.6304 31.7336 30.3371 32.0627C31.3129 32.517 31.5497 33.0325 31.007 33.5213C30.4643 34.01 29.1758 34.4419 27.361 34.7432C25.5461 35.0445 23.3173 35.1967 21.0542 35.1738C18.791 35.1508 16.6337 34.9543 14.9497 34.6175C13.2658 34.2807 12.1594 33.8246 11.819 33.3269C11.4787 32.8292 11.9255 32.3206 13.0832 31.8879C13.9908 31.5487 15.2913 31.2725 16.8372 31.0865C17.2566 31.036 17.3885 30.4747 17.0285 30.2536Z"/>
</mask>
<path d="M17.0285 30.2536C16.9495 30.2051 16.8569 30.1829 16.7646 30.1906C13.89 30.4299 11.4665 30.8799 9.89616 31.4668C8.29996 32.0634 7.684 32.7645 8.15321 33.4507C8.62243 34.1369 10.1478 34.7657 12.4694 35.23C14.7911 35.6943 17.7653 35.9653 20.8853 35.9969C24.0054 36.0285 27.0782 35.8187 29.5803 35.4033C32.0823 34.9879 33.8588 34.3925 34.607 33.7186C35.3551 33.0448 35.0287 32.3341 33.6833 31.7077C32.3581 31.0907 30.1249 30.5931 27.3553 30.2969C27.2728 30.288 27.1891 30.3023 27.1141 30.3379C26.7007 30.5339 26.8044 31.1667 27.2561 31.2396C28.5677 31.4514 29.6304 31.7336 30.3371 32.0627C31.3129 32.517 31.5497 33.0325 31.007 33.5213C30.4643 34.01 29.1758 34.4419 27.361 34.7432C25.5461 35.0445 23.3173 35.1967 21.0542 35.1738C18.791 35.1508 16.6337 34.9543 14.9497 34.6175C13.2658 34.2807 12.1594 33.8246 11.819 33.3269C11.4787 32.8292 11.9255 32.3206 13.0832 31.8879C13.9908 31.5487 15.2913 31.2725 16.8372 31.0865C17.2566 31.036 17.3885 30.4747 17.0285 30.2536Z" fill="#FEFEFE" stroke="#676A74" stroke-width="4" mask="url(#path-5-inside-1_391_2936)"/>
<path d="M18.4854 24.1717L20.1925 25.8788V23.4646V12C20.1925 11.309 20.5769 11 21 11H22.5C22.7512 11 22.8827 11.0875 22.9748 11.2045C23.0882 11.3485 23.1925 11.6127 23.1925 12V23.4433V25.8575L24.8996 24.1504L25.9498 23.1002C26.3403 22.7097 26.9735 22.7097 27.364 23.1002L28.0711 22.3931L27.364 23.1002L28.0711 23.8073C28.4617 24.1978 28.4617 24.831 28.0711 25.2215L22.4143 30.8784C22.2176 31.0751 21.9613 31.1725 21.7021 31.1712L21.6896 31.1712L21.6771 31.1714C21.4128 31.1767 21.1502 31.0792 20.9497 30.8787L15.2929 25.2219C14.9024 24.8314 14.9024 24.1982 15.2929 23.8077L16 23.1006L15.3086 22.4092L16 23.1006C16.3905 22.71 17.0237 22.71 17.4142 23.1006L18.1213 22.3935L17.4142 23.1006L18.4854 24.1717Z" fill="#FEFEFE" stroke="#676A74" stroke-width="2"/>
</svg>
