<svg width="42" height="42" viewBox="0 0 42 42" fill="none" xmlns="http://www.w3.org/2000/svg">
<rect width="42" height="42" rx="9" fill="#FEFEFE"/>
<rect x="7" y="7" width="33" height="33" rx="7" fill="#FEFEFE"/>
<path fill-rule="evenodd" clip-rule="evenodd" d="M32 4H30C29.4477 4 29 4.44772 29 5C29 5.55228 29.4477 6 30 6H32C35.3137 6 38 8.68629 38 12V32C38 35.3137 35.3137 38 32 38H19C18.4477 38 18 38.4477 18 39C18 39.5523 18.4477 40 19 40H32C36.4183 40 40 36.4183 40 32V12C40 7.58172 36.4183 4 32 4ZM25 4H12C7.58172 4 4 7.58172 4 12V32C4 36.4183 7.58172 40 12 40H14C14.5523 40 15 39.5523 15 39C15 38.4477 14.5523 38 14 38H12C8.68629 38 6 35.3137 6 32V12C6 8.68629 8.68629 6 12 6H25C25.5523 6 26 5.55228 26 5C26 4.44772 25.5523 4 25 4Z" fill="#676A74"/>
<path d="M24.8787 16.9999L23.1716 15.2928V17.707V33.1719C23.1716 33.7242 22.7239 34.1719 22.1716 34.1719H21.1716C20.6193 34.1719 20.1716 33.7242 20.1716 33.1719V17.7283V15.3141L18.4645 17.0212L17.4142 18.0714C17.0237 18.462 16.3905 18.462 16 18.0714L15.2929 17.3643C14.9024 16.9738 14.9024 16.3407 15.2929 15.9501L20.9497 10.2933C21.1465 10.0966 21.4027 9.9991 21.6619 10.0004L21.6744 10.0005L21.6869 10.0002C21.9513 9.99491 22.2138 10.0924 22.4143 10.2929L28.0711 15.9497C28.4617 16.3403 28.4617 16.9734 28.0711 17.364L27.364 18.0711C26.9735 18.4616 26.3403 18.4616 25.9498 18.0711L24.8787 16.9999Z" fill="#FEFEFE" stroke="#676A74" stroke-width="2"/>
</svg>
