<svg width="42" height="42" viewBox="0 0 42 42" fill="none" xmlns="http://www.w3.org/2000/svg">
<rect width="42" height="42" rx="9" fill="#FEFEFE"/>
<path fill-rule="evenodd" clip-rule="evenodd" d="M32 4H30C29.4477 4 29 4.44772 29 5C29 5.55228 29.4477 6 30 6H32C35.3137 6 38 8.68629 38 12V32C38 35.3137 35.3137 38 32 38H19C18.4477 38 18 38.4477 18 39C18 39.5523 18.4477 40 19 40H32C36.4183 40 40 36.4183 40 32V12C40 7.58172 36.4183 4 32 4ZM25 4H12C7.58172 4 4 7.58172 4 12V32C4 36.4183 7.58172 40 12 40H14C14.5523 40 15 39.5523 15 39C15 38.4477 14.5523 38 14 38H12C8.68629 38 6 35.3137 6 32V12C6 8.68629 8.68629 6 12 6H25C25.5523 6 26 5.55228 26 5C26 4.44772 25.5523 4 25 4Z" fill="#676A74"/>
<path d="M31 12L20 23" stroke="#676A74" stroke-width="2" stroke-linecap="round" stroke-linejoin="round"/>
<path d="M31 12L24 32L20 23L11 19L31 12Z" stroke="#676A74" stroke-width="2" stroke-linecap="round" stroke-linejoin="round"/>
</svg>
