<svg width="42" height="42" viewBox="0 0 42 42" fill="none" xmlns="http://www.w3.org/2000/svg">
<rect width="42" height="42" rx="9" fill="#FEFEFE"/>
<path fill-rule="evenodd" clip-rule="evenodd" d="M32 4H30C29.4477 4 29 4.44772 29 5C29 5.55228 29.4477 6 30 6H32C35.3137 6 38 8.68629 38 12V32C38 35.3137 35.3137 38 32 38H19C18.4477 38 18 38.4477 18 39C18 39.5523 18.4477 40 19 40H32C36.4183 40 40 36.4183 40 32V12C40 7.58172 36.4183 4 32 4ZM25 4H12C7.58172 4 4 7.58172 4 12V32C4 36.4183 7.58172 40 12 40H14C14.5523 40 15 39.5523 15 39C15 38.4477 14.5523 38 14 38H12C8.68629 38 6 35.3137 6 32V12C6 8.68629 8.68629 6 12 6H25C25.5523 6 26 5.55228 26 5C26 4.44772 25.5523 4 25 4Z" fill="#676A74"/>
<path d="M8.07812 15.5391C8.07812 14.5371 8.76367 14.1416 9.60742 14.0889L13.5361 14.1152C13.7734 14.1152 13.9844 14.2734 14.0635 14.5107C14.96 17.4111 16.0674 19.2041 17.3857 21.2344C17.4648 21.3926 17.5967 21.4717 17.7285 21.4717C17.834 21.4717 17.9395 21.4189 18.0186 21.2871L18.0977 20.9971L18.124 16.4355C18.124 15.7764 17.8076 15.6709 17.0693 15.5654C16.7793 15.5127 16.5947 15.249 16.5947 14.9854C16.5947 14.9326 16.5947 14.8799 16.6211 14.8271C16.9902 13.6934 18.1504 13.1133 19.7852 13.1133L21.2617 13.0869C22.4746 13.0869 23.582 13.6143 23.582 15.1699V21.1553C23.6875 21.2344 23.793 21.2871 23.9248 21.2871C24.1357 21.2871 24.3994 21.1553 24.6104 20.8125C25.9814 18.8877 27.5371 16.5938 27.748 15.3809C27.748 15.3281 27.7744 15.3018 27.8008 15.249C28.0908 14.6689 28.8291 14.2734 29.1455 14.168C29.1982 14.1416 29.2773 14.1152 29.3828 14.1152H33.4697L33.7334 14.1416C34.1289 14.1416 34.4189 14.4053 34.5508 14.6426C34.7881 15.0117 34.7354 15.4072 34.7617 15.5654V15.75C34.3662 18.1494 31.624 20.8389 30.4639 22.5791C30.3057 22.79 30.2266 22.9746 30.2266 23.1592C30.2266 23.3174 30.3057 23.4756 30.4375 23.6338L34.2871 28.4854C34.498 28.7754 34.6035 29.1182 34.6035 29.4082C34.6035 30.2783 33.7861 30.7793 32.9951 30.8584L32.5469 30.8848H28.5391C28.46 30.8848 28.4072 30.9111 28.3281 30.9111C27.8799 30.9111 27.5107 30.6738 27.2471 30.4102C26.4033 29.3818 25.5859 28.3271 24.7686 27.2988C24.6104 27.0879 24.5576 27.0615 24.3994 26.9561C24.2148 27.7207 24.0566 28.5117 23.8721 29.3027L23.793 29.751C23.6611 30.2256 23.3184 30.7266 22.6855 30.8584L22.3164 30.8848H19.7324C15.1709 30.8848 11.084 24.3984 8.20996 16.3037C8.13086 16.0928 8.07812 15.8027 8.07812 15.5391ZM23.9248 22.3682C23.2393 22.3682 22.4746 21.9727 22.4746 21.2344V15.1699C22.4746 14.458 22.1582 14.1943 21.2881 14.1943L19.7852 14.2471C18.9414 14.2471 18.4668 14.3789 18.0713 14.6426C18.6777 14.9326 19.2314 15.3281 19.2314 16.4355V21.0762C19.1523 21.999 18.3877 22.6055 17.6494 22.6055C17.1484 22.6055 16.7002 22.3154 16.4365 21.8408C15.25 20.0479 14.248 18.3604 13.3779 15.9346L13.1406 15.249L9.63379 15.2227C9.15918 15.2227 9.21191 15.249 9.21191 15.4863C9.21191 15.6445 9.23828 15.8555 9.26465 15.9873L9.81836 17.4639C12.6924 24.8994 16.3047 29.7773 19.7324 29.7773H22.3691C22.7383 29.7773 22.7119 29.3291 22.791 29.0654L23.292 26.7451C23.3975 26.5078 23.4766 26.2969 23.6611 26.1123C23.8721 25.9014 24.1094 25.8223 24.3467 25.8223C24.8477 25.8223 25.3223 26.2178 25.6387 26.5869L27.8799 29.4346C28.0645 29.7246 28.2227 29.7773 28.3281 29.7773H32.6787C33.1006 29.7773 33.4697 29.6455 33.4697 29.3818C33.4697 29.3027 33.4434 29.1973 33.3906 29.1182L29.5674 24.3457C29.251 23.9502 29.1191 23.5547 29.1191 23.1592C29.1191 22.7373 29.2773 22.3154 29.541 21.9463C30.6484 20.2852 33.0215 17.9121 33.5752 15.9609L33.6543 15.6182C33.6279 15.4863 33.6279 15.3809 33.6016 15.249H29.4619C29.1982 15.3545 28.9873 15.5127 28.8291 15.7236L28.6709 16.2246C28.0645 17.9121 26.4033 20.2324 25.2168 21.8408C24.8213 22.21 24.373 22.3682 23.9248 22.3682Z" fill="#676A74"/>
</svg>
